<?xml version="1.0" encoding="UTF-8"?>
<svg xmlns="http://www.w3.org/2000/svg" version="1.1" xmlns:xlink="http://www.w3.org/1999/xlink" viewBox="0 0 750 500">
  <defs>
    <style>
      .cls-1 {
        fill: none;
      }

      .cls-2 {
        fill: url(#linear-gradient);
      }

      .cls-3 {
        clip-path: url(#clippath);
      }
    </style>
    <clipPath id="clippath">
      <rect class="cls-1" width="750" height="500"/>
    </clipPath>
    <linearGradient id="linear-gradient" x1="131.2" y1="-107.3" x2="642.7" y2="630.9" gradientTransform="translate(0 502) scale(1 -1)" gradientUnits="userSpaceOnUse">
      <stop offset="0" stop-color="#c8cacc"/>
      <stop offset=".1" stop-color="#d5d6d7"/>
      <stop offset=".4" stop-color="#e4e5e6"/>
      <stop offset=".6" stop-color="#eaebeb"/>
      <stop offset=".7" stop-color="#eeefef"/>
      <stop offset=".9" stop-color="#fafafb"/>
      <stop offset="1" stop-color="#fff"/>
    </linearGradient>
  </defs>
  <!-- Generator: Adobe Illustrator 28.6.0, SVG Export Plug-In . SVG Version: 1.2.0 Build 709)  -->
  <g>
    <g id="Layer_1">
      <g id="OBJECTS">
        <g class="cls-3">
          <path class="cls-2" d="M391.9,473.9v-30.9l-29.1-16.8v33.1l-27.1,15.7v-32.5l-28.6,16.5-27.6-16v-30.3c.8-.2,1.5-1,1.5-1.9s0-.3,0-.5l26.5-15.3h.2v-33.8l-28.6,16.5-28.1-16.2-28.1,16.2-27.6-16v-31.9l28.6-16.5-28.6-16.5v-33.1l-28.9,16.7h-.2v32.1l-25.7-14.9c0-.2,0-.3,0-.5,0-.9-.6-1.7-1.5-1.9v-62.8l27.9-16.1h.2v-33.8l-28.9,16.7h-.2v32.6l-27.6,16-27.1-15.7,27.4-15.8h.2v-33.8l-28.9,16.7h-.2v64.5l-25.7-14.9c0-.2,0-.3,0-.5,0-.9-.6-1.7-1.5-1.9v-30.9l-27.6-16,27.1-15.7.5.3v-.6l.5-.3-.5-.3v-32.5l-26.7-15.4c0-.2,0-.3,0-.5,0-1.1-.9-2-2-2s-2,.9-2,2,.6,1.7,1.5,1.9v30.3l-28.6,16.5,28.1,16.2-27.4,15.8h-.2v32.6l-.5.3.5.3v32.5l27.6,15.9-27.4,15.8h-.2v33.8l28.9-16.7h.2v-32.1h0s0-33.1,0-33.1l26.2-15.2c.2.2.5.4.9.5v30.9l27.6,16-27.4,15.8h-.2v32.6l-26.2,15.1c-.4-.4-.8-.6-1.4-.6-1.1,0-2,.9-2,2s.6,1.7,1.5,1.9v62.8l-27.9,16.1h-.2v33.8h0s0,31.9,0,31.9l28.1,16.2v.6l.5-.3.5.3v-.6l27.9-16.1h.2v-33.8l-27.2,15.7c-.4-.4-.8-.6-1.4-.6s-1,.2-1.4.6l-25.8-14.9,26.7-15.4h0s28.6-16.5,28.6-16.5l28.6,16.5v-33.1l27.9-16.1h.2v-31c.8-.2,1.5-1,1.5-1.9s-.9-2-2-2-2,.9-2,2,0,.3,0,.5l-26.5,15.3h-.2v32l-27.1-15.7v-64.4l27.6-15.9,28.6,16.5v-33.1l26.2-15.2c.2.2.6.4.9.5v30.9l26.7,15.4c0,.2,0,.3,0,.5s0,.3,0,.5l-26.5,15.3h-.2v65.1l-26.1,15.1c-.4-.5-.9-.8-1.6-.8-1.1,0-2,.9-2,2s.6,1.7,1.5,1.9v31.8l28.1-16.2v31.9l29.1,16.8v-33.6l-27.6-15.9,27.2-15.7,26.2,15.2c0,.2,0,.3,0,.5,0,1.1.9,2,2,2s2-.9,2-2-.6-1.7-1.5-1.9v-62.8l27.6-16,27.1,15.7-27.4,15.8h-.2v32.6l-.5.3.5.3v31.9l-27.9,16.1h-.2v33.8l28.9-16.7h.2v-32.1l27.1,15.7v.6l.5-.3,28.6,16.5v-31.5c.3,0,.7-.3.9-.5l26.2,15.1v33.1l28.1-16.2h0s28.9-16.7,28.9-16.7h.2v-32.1l25.8,14.9c0,.2,0,.3,0,.5,0,1.1.9,2,2,2s2-.9,2-2c0-.9-.6-1.7-1.5-1.9ZM82.4,199.9l27.1-15.7v31.3l-27.1,15.7v-31.3ZM25.1,329.3l-27.1,15.7v-31.3l27.1-15.7v31.3ZM53.3,476.6v31.3l-27.1,15.7v-29.7c.8-.2,1.5-1,1.5-1.9s0-.3,0-.5l25.7-14.9ZM25.1,493.9v29.7l-27.1-15.7v-31.3l25.7,14.9c0,.2,0,.3,0,.5,0,.9.6,1.7,1.5,1.9ZM334.6,475.4l-27.1,15.7v-31.3l27.1-15.7v31.3ZM278.3,473.9c-.3,0-.7.3-.9.5l-25.7-14.9,26.6-15.4v29.7ZM251.2,426.7v-31.3l25.7,14.9c0,.2,0,.3,0,.5,0,.9.6,1.7,1.5,1.9v29.7l-27.1-15.7ZM278.3,408.9c-.3,0-.7.3-.9.5l-25.7-14.9,26.6-15.4v29.7h0ZM250.7,427.6l27.1,15.7-12.3,7.1-14.8,8.5-27.1-15.7,12.3-7.1,14.8-8.5ZM251.2,460.4l25.7,14.9c0,.2,0,.3,0,.5s0,.3,0,.5l-25.7,14.9v-30.8ZM306.5,394.2l-26.2,15.1c-.2-.2-.6-.4-.9-.5v-30.3l27.1-15.7v31.3h0ZM166.8,343.9v-29.7l27.1,15.7v31.3l-25.7-14.9c0-.2,0-.3,0-.5,0-.9-.6-1.7-1.5-1.9ZM166.8,347.7c.3,0,.7-.3.9-.5l25.7,14.9-26.6,15.4v-29.7ZM194.4,329l-27.1-15.7,13.3-7.7,13.8-8,27.1,15.7-27.1,15.7ZM166.8,281.1l27.1-15.7v31.3l-27.1,15.7v-31.3ZM138.7,199.9l27.1-15.7v31.3l-27.1,15.7v-31.3ZM137.7,264.3l-8.9,5.1-18.3,10.5v-31.3l27.1-15.7v31.3h0ZM109.5,312.4l-13.6-7.8-13.6-7.8v-31.3l13.6,7.8,13.6,7.8v31.3ZM82.4,233l27.1,15.7v31.3l-13.6-7.8-13.6-7.8v-31.3ZM53.2,246.4c-.3,0-.7.3-.9.5l-26.2-15.2v-31.3l27.1,15.7s0,30.3,0,30.3ZM53.2,151.2v31.3l-27.1-15.7v-30.3c.3,0,.7-.3.9-.5l26.2,15.2ZM25.6,167.7l27.1,15.7-26.6,15.4h0s-.5.3-.5.3l-.5-.3h0s-26.6-15.4-26.6-15.4l27.1-15.7ZM-2,216.1l27.1-15.7v31.3l-27.1,15.7s0-31.3,0-31.3ZM-2,249.2l27.1,15.7v31.3l-27.1-15.7s0-31.3,0-31.3ZM25.6,264l-27.1-15.7,12.3-7.1,14.8-8.5,26.2,15.2c0,.2,0,.3,0,.5s0,.3,0,.5l-26.2,15.2ZM54.2,250.2c.3,0,.7-.3.9-.5l26.2,15.2v31.3l-27.1-15.7s0-30.3,0-30.3ZM54.2,313.6l27.1-15.7v31.3l-27.1,15.7s0-31.3,0-31.3ZM26.1,363.9c.8-.2,1.5-1,1.5-1.9s0-.3,0-.5l25.7-14.9v31.3l-27.1,15.7v-29.7h0ZM53.3,410.5l-27.1,15.7v-31.3l27.1-15.7v31.3ZM25.1,459.2l-27.1,15.7v-31.3l27.1-15.7v31.3ZM26.1,427.3l27.1-15.7v31.3l-27.1,15.7s0-31.3,0-31.3ZM82.4,394.8l26.2-15.1c.2.2.6.4.9.5v30.3l-27.1,15.7v-31.3ZM81.4,427.9v30.8l-27.1-15.7v-31.3l27.1,15.7v.6h0ZM109.5,344.9l-27.1-15.7v-31.3l13.6,7.8,13.6,7.8v31.3ZM110.5,312.4v-31.3l15.5-9,11.6-6.7v29.7c-.8.2-1.5,1-1.5,1.9s0,.3,0,.5l-25.7,14.9ZM138.7,329.3v-30.3c.3,0,.7-.3.9-.5l26.2,15.2v30.3c-.3,0-.6.3-.9.5l-26.2-15.1ZM138.7,362.3l26.2-15.2c.2.2.6.4.9.5v30.3l-.5.3h0s-26.6,15.4-26.6,15.4v-31.3h0ZM138.7,427.3l27.1-15.7v31.3l-27.1,15.7v-31.3ZM165.8,410.5l-27.1,15.7v-31.3l27.1-15.7v31.3ZM110.5,474.9v-30.1c.8-.2,1.5-1,1.5-1.9s0-.1,0-.2l25.7-14.8v31.3l-27.1,15.7ZM165.7,507.4l-27.1-15.7v-31.3l27.1,15.7v31.3ZM193.9,457.6c-.3,0-.7.3-.9.5l-26.2-15.1v-31.3l27.1,15.7v30.3h0ZM166.8,410.5v-31.3l27.1,15.7v31.3l-27.1-15.7ZM194.4,393.9l-27.1-15.7,27.1-15.7.5.3h0s26.6,15.4,26.6,15.4l-27.1,15.7ZM250.7,362.6l27.1,15.7-26.6,15.4h0l-.5.3-.5-.3h0l-26.6-15.4,27.1-15.7ZM223.1,411.1l27.1-15.7v31.3l-27.1,15.7v-31.3ZM222.1,507.9l-27.1,15.7v-31.3l27.1-15.7v31.3ZM223.1,475.5v-31.3l27.1,15.7v31.3l-27.1-15.7ZM251.7,492l25.7-14.9c.2.2.6.4.9.5v29.7l-26.6-15.4ZM279.3,473.9v-29.7l27.1,15.7v31.3l-25.7-14.9c0-.2,0-.3,0-.5,0-.9-.6-1.7-1.5-1.9ZM307.5,523.6v-31.3l27.1-15.7v31.3l-27.1,15.7ZM362.7,491.7l-27.1,15.7v-31.3l27.1-15.7v31.3ZM363.7,459.2v-31.3l27.1,15.7v30.3c-.3,0-.6.3-.9.5l-26.2-15.2ZM758.2,270.4l-28.1-16.2,27.4-15.8h.2v-32.6l.5-.3-.5-.3v-32.5l-27.6-15.9,27.4-15.8h.2v-33.8l-28.9,16.7h-.2v32.1h0s0,33.1,0,33.1l-26.2,15.2c-.2-.2-.5-.4-.9-.5v-63.4l-28.1-16.2v-32.5l-26.8-15.4c0-.2,0-.3,0-.5s0-.3,0-.5l26.5-15.3h.2V27.6l27.1,15.7v65.6l27.2-15.7c.4.4.8.6,1.4.6,1.1,0,2-.9,2-2s-.6-1.7-1.5-1.9V27.1l27.9-16.1h.2V-22.9l-28.2,16.3h0s-28.6,16.5-28.6,16.5l-28.6-16.5V26.5l-27.9,16.1h-.2v31c-.8.2-1.5,1-1.5,1.9s.6,1.7,1.5,1.9v30.9l28.1,16.2v31.9l-27.1,15.7v-31.9l-28.1-16.2v-.6l-.5.3-.5-.3v.6l-27.9,16.1h-.2v33.8l27.2-15.7c.4.4.8.6,1.4.6s1-.2,1.4-.6l26.2,15.1v65.6l28.6-16.5,27.6,16h0l27.6,16-27.1,15.7-.5-.3v.6l-.5.3.5.3v32.5l28.1,16.2v30.3c-.8.2-1.5,1-1.5,1.9s.9,2,2,2,2-.9,2-2,0-.3,0-.5l26.5-15.3h.2v-33.8l-28.1,16.2v-31.3l28.6-16.5ZM729.6,124.5l27.1-15.7v31.3l-27.1,15.7v-31.3ZM756.7,237.6l-27.1,15.7v-31.3l27.1-15.7v31.3ZM756.7,204.5l-27.1-15.7v-31.3l27.1,15.7v31.3ZM729,189.7l27.1,15.7-12.3,7.1-14.8,8.6-26.2-15.2c0-.2,0-.3,0-.5s0-.3,0-.5l26.2-15.2ZM700.4,173.2v30.3c-.3,0-.7.3-.9.5l-12.7-7.3-13.6-7.8v-31.3l13.6,7.8,13.6,7.8ZM701.4,43.3l27.1-15.7v31.3l-27.1,15.7v-31.3ZM701.4,107.1v-31.3l27.1-15.7v29.7c-.8.2-1.5,1-1.5,1.9s0,.3,0,.5l-25.8,14.9ZM729.6-5.5l27.1-15.7V10.2l-27.1,15.7V-5.5ZM728.5,26.4l-27.1,15.7V10.8l27.1-15.7v31.3ZM673.2-4.9l27.1,15.7v31.3l-27.1-15.7v-.6h0s0-30.8,0-30.8h0ZM672.3,27.6v31.3l-26.2,15.2c-.2-.2-.6-.4-.9-.5v-30.3l27.1-15.7ZM645.1,107.7v-30.3c.3,0,.6-.3.9-.5l26.2,15.2v31.3l-27.1-15.7ZM700.4,140.7v31.3l-13.6-7.8-13.6-7.8v-31.3l27.1,15.7ZM588.9,172.1v-31.3l27.1-15.7v29.7c-.8.2-1.5,1-1.5,1.9s0,.3,0,.5l-25.7,14.9ZM617,154.8v-29.7l27.1,15.7v31.3l-25.7-14.9c0-.2,0-.3,0-.5,0-.9-.6-1.7-1.5-1.9ZM645.1,173.2l27.1-15.7v31.3l-27.1,15.7v-31.3ZM645.1,205.7l27.1-15.7v31.3l-27.1,15.7v-31.3ZM673.3,221.4v-31.3l13.6,7.8,12.2,7c0,.2,0,.3,0,.5,0,.9.6,1.7,1.5,1.9v29.7l-27.1-15.7ZM701.4,207.3c.3,0,.7-.3.9-.5l26.2,15.2v31.3l-27.1-15.7v-30.3ZM728.5,255h0l.5-.3.5.3h0s26.6,15.4,26.6,15.4l-27.1,15.7-27.1-15.7,26.6-15.4ZM701.4,271.3l27.1,15.7v31.3l-27.1-15.7v-31.3ZM756.7,303.7v31.3l-26.2,15.2c-.2-.2-.5-.4-.9-.5v-30.3l27.1-15.7ZM590.3,107.9c0-.2,0-.3,0-.5l26.5-15.3h.2V27.1l26.1-15.1c.4.5.9.8,1.6.8,1.1,0,2-.9,2-2s-.6-1.7-1.5-1.9v-31.8l-28.1,16.2v-31.9l-29.1-16.8V-21.7l27.6,15.9-27.2,15.7-26.2-15.2c0-.2,0-.3,0-.5,0-1.1-.9-2-2-2s-2,.9-2,2,.6,1.7,1.5,1.9v29.7h0v33.1l-27.6,16-27.1-15.7,27.4-15.8h.2V10.8l.5-.3-.5-.3v-31.9l27.9-16.1h.2v-33.8l-28.9,16.7h-.2V-22.9l-27.1-15.7v-.6l-.5.3-28.6-16.5v31.5c-.3,0-.7.3-.9.5l-26.2-15.1v-33.1l-28.1,16.2h0s-28.9,16.7-28.9,16.7h-.2V-6.6l-27.1-15.7v-.6l-.5.3-.5-.3v.6l-27.6,16-28.6-16.5V10.2l-27.1,15.7V-6.1l-29.1-16.8h0s-28.1-16.2-28.1-16.2V-6l-26.2,15.1c-.4-.4-.8-.6-1.4-.6-1.1,0-2,.9-2,2s.9,2,2,2,1-.2,1.4-.6l26.2,15.2v33.1l28.9-16.7h.2V11.3l27.1,15.7v33.1l27.2-15.7c.2.2.6.4.9.5v30.9l29.1,16.8v-32.5l28.1,16.2v-33.6l-27.6-16,27.1-15.7,28.6,16.5V-5.5l27.1-15.7v63.8l-27.9,16.1h-.2v33.8l27.2-15.7c.4.4.8.6,1.4.6,1.1,0,2-.9,2-2s-.6-1.7-1.5-1.9v-30.3l27.9-16.1h.2V-4.9l27.1,15.7v30.3c-.8.2-1.5,1-1.5,1.9s0,.3,0,.5l-26.5,15.3h-.2v33.8l28.6-16.5,28.1,16.2,28.1-16.2,28.1,16.2,27.6-16v29.7c-.8.2-1.5,1-1.5,1.9s.9,2,2,2c1.1,0,2-.9,2-2ZM616,91.4l-26.2,15.2c-.2-.2-.5-.4-.9-.5v-30.3l.5-.3h0l26.6-15.4v31.3ZM560.7,27.6l27.1,15.7v31.3l-27.1-15.7v-31.3ZM588.9,43.3l27.1-15.7v31.3l-27.1,15.7v-31.3ZM616,26.4l-27.1,15.7V10.8l27.1-15.7v31.3ZM644.2-21.1V9c-.8.2-1.5,1-1.5,1.9s0,.1,0,.2l-25.7,14.8V-5.5l27.1-15.7ZM588.9-53.6l27.1,15.7V-6.6l-27.1-15.7v-31.3ZM560.7-3.9c.3,0,.7-.3.9-.5l26.2,15.2v31.3l-27.1-15.7V-3.9ZM503.9,26.1l-27.1-15.7,12.3-7.1,14.8-8.6,27.1,15.7-12.3,7.1-14.8,8.5ZM476.3-20.1c.3,0,.6-.3.9-.5l25.7,14.9-26.6,15.4v-29.7ZM503.4-6.6l-25.7-14.9c0-.2,0-.3,0-.5s0-.3,0-.5l25.7-14.9V-6.6ZM503.4,27v31.3l-25.7-14.9c0-.2,0-.3,0-.5,0-.9-.6-1.7-1.5-1.9V11.3l27.1,15.7ZM476.3,44.9c.3,0,.7-.3.9-.5l25.7,14.9-26.6,15.4v-29.7h0ZM531.6,42.7l-27.1,15.7v-31.3l27.1-15.7v31.3ZM532.6-54.2l27.1-15.7v31.3l-27.1,15.7v-31.3ZM531.6-21.7V9.6l-27.1-15.7v-31.3l27.1,15.7ZM502.9-38.2l-25.7,14.9c-.2-.2-.6-.4-.9-.5v-29.7l26.6,15.4ZM447.2-69.9v31.3l-27.1,15.7v-31.3l27.1-15.7ZM362.8-21.1V10.2l-27.1,15.7V-5.5l27.1-15.7ZM307.5-21.1l27.1,15.7v31.3l-13.6-7.8-13.6-7.8v-31.3h0ZM334.6,58.3l-13.6-7.8-12.2-7c0-.2,0-.3,0-.5,0-.9-.6-1.7-1.5-1.9V11.3l13.6,7.8,13.6,7.8v31.3h0ZM278.4,25.9l-27.1-15.7v-31.3l27.1,15.7v31.3ZM223.1-37.4l27.1,15.7V9.6l-27.1-15.7v-31.3ZM196.3,10l26.2-15.2,27.1,15.7-12.3,7.1-14.8,8.6-26.2-15.2c0-.2,0-.3,0-.5s0-.3,0-.5ZM250.2,42.7l-27.1,15.7v-31.3l27.1-15.7v31.3ZM279.4,58.3v-31.3l27.1-15.7v29.7c-.8.2-1.5,1-1.5,1.9s0,.3,0,.5l-25.7,14.9ZM334.6,90.8l-27.1-15.7v-30.3c.3,0,.7-.3.9-.5l12.7,7.3,13.6,7.8v31.3ZM362.8,74.6l-27.1-15.7v-31.3l27.1,15.7v31.3ZM390.9,25.9l-27.1-15.7v-31.3l27.1,15.7v31.3ZM391.9-6.6v-31.3l27.1-15.7v31.3l-27.1,15.7ZM447.2-37.4V-6l-27.1,15.7v-31.3l27.1-15.7ZM391.9,90.8v-31.3l27.1-15.7v29.7c-.8.2-1.5,1-1.5,1.9s0,.3,0,.5l-25.7,14.9ZM447.2,26.4l-27.1,15.7V10.8l27.1-15.7v31.3ZM448.2-37.4l25.7,14.9c0,.2,0,.3,0,.5,0,.9.6,1.7,1.5,1.9V9.6l-27.1-15.7v-31.3ZM448.2,59.5l26.2-15.2c.2.2.6.4.9.5v30.3l-27.1,15.7v-31.3h0ZM503.9,91.1l-27.1-15.7,26.6-15.4h0l.5-.3.5.3h0l26.6,15.4-27.1,15.7ZM533.1,75.5l27.1-15.7,27.1,15.7-27.1,15.7-27.1-15.7Z"/>
        </g>
      </g>
    </g>
  </g>
</svg>